<?xml version="1.0" encoding="utf-8"?>
<!-- Generator: Adobe Illustrator 26.0.1, SVG Export Plug-In . SVG Version: 6.00 Build 0)  -->
<svg version="1.1" id="Layer_1" xmlns="http://www.w3.org/2000/svg" xmlns:xlink="http://www.w3.org/1999/xlink" x="0px" y="0px"
	 viewBox="0 0 1080 1080" style="enable-background:new 0 0 1080 1080;" xml:space="preserve">
<style type="text/css">
	.st0{fill:#FFFFFF;}
	.st1{fill:url(#SVGID_1_);}
	.st2{fill:url(#SVGID_00000088093756987323169770000012801178665256015243_);}
	.st3{fill:url(#SVGID_00000070117445414516724630000001317676533697085570_);}
	.st4{fill:url(#SVGID_00000015345646702065306280000002297090892497122959_);}
	.st5{fill:url(#SVGID_00000170956919889631134090000014479309490136256948_);}
	.st6{fill:url(#SVGID_00000096745736096608147330000009875975092901210047_);}
	.st7{fill:#053146;}
	.st8{fill:url(#SVGID_00000086683402393755900680000004835725428638634422_);}
	.st9{fill:url(#SVGID_00000005248743407568743670000014307748534594200224_);}
	.st10{opacity:0.39;}
	.st11{opacity:0.31;}
	.st12{fill:url(#SVGID_00000097472832892177825290000009703595360164474036_);}
	.st13{fill:url(#SVGID_00000166638269692420974300000005371718021831305358_);}
	.st14{fill:url(#SVGID_00000159432902678330415340000016013719032350115223_);}
	.st15{fill:url(#SVGID_00000036953106649155291820000004668106649914351791_);}
	.st16{fill:url(#SVGID_00000041987149506835791180000002798677088586564232_);}
	.st17{fill:url(#SVGID_00000126289341885328632110000011709073468882075041_);}
	.st18{fill:url(#SVGID_00000068663390796150540310000012849042362481477290_);}
	.st19{fill:url(#SVGID_00000024700025877991561570000006660421184257976239_);}
	.st20{fill:url(#SVGID_00000091716482349206810240000011517216366677936790_);}
	.st21{fill:url(#SVGID_00000139254432165584156550000015043286323396066185_);}
	.st22{fill:url(#SVGID_00000078724969508506430210000014530220496856991894_);}
	.st23{fill:url(#SVGID_00000168803391240570582400000000709277991316277944_);}
	.st24{fill:url(#SVGID_00000013909525542672569380000007416815155111711112_);}
	.st25{fill:url(#SVGID_00000144305451264661806300000012042976829710736515_);}
	.st26{fill:url(#SVGID_00000106123825948781997990000007012300430569973894_);}
	.st27{fill:url(#SVGID_00000039843748124376154500000018212880257862407323_);}
	.st28{fill:url(#SVGID_00000148643127996096057930000008244615077846408591_);}
	.st29{fill:url(#SVGID_00000029027402856714875850000008705855038926137265_);}
	.st30{fill:url(#SVGID_00000127744050580752834960000012717868154266575031_);}
	.st31{fill:url(#SVGID_00000131344173674897087170000011964834287446043522_);}
	.st32{fill:url(#SVGID_00000110469665480244820790000013394860316893354156_);}
	.st33{fill:url(#SVGID_00000059292644060931589170000002949211646874206372_);}
	.st34{fill:url(#SVGID_00000102533354824808226260000015273412525313183124_);}
	.st35{fill:url(#SVGID_00000093855053952846666780000000461490758697195706_);}
	.st36{fill:url(#SVGID_00000078045367073281149200000004085973499358160267_);}
	.st37{fill:url(#SVGID_00000022526687465118110840000013758609699317477003_);}
	.st38{fill:url(#SVGID_00000133530972605048166930000000605408097699645093_);}
	.st39{fill:url(#SVGID_00000107561109656223761320000008315819948083890094_);}
	.st40{fill:url(#SVGID_00000096051702726786648880000005167485349722797238_);}
	.st41{fill:url(#SVGID_00000012457926636161407980000007417255262893395618_);}
	.st42{fill:url(#SVGID_00000047031343652255205750000016515505340605580953_);}
	.st43{fill:url(#SVGID_00000000932108999267231910000002593713991657009027_);}
	.st44{fill:url(#SVGID_00000164507584722906260540000005334906015791623059_);}
	.st45{fill:url(#SVGID_00000100378260902666253390000015906096455342955962_);}
	.st46{fill:url(#SVGID_00000096040082420915105740000005693819892160418184_);}
	.st47{fill:url(#SVGID_00000048498422460473429720000006662311298628824705_);}
	.st48{fill:url(#SVGID_00000134225458559952380470000008978401974920658816_);}
	.st49{fill:url(#SVGID_00000093148721647626293550000003325466691942069693_);}
	.st50{fill:url(#SVGID_00000003822396455495424800000013837697709552415897_);}
	.st51{fill:url(#SVGID_00000063606650397932382680000016773144896350717102_);}
</style>
<rect y="0" class="st7" width="1080" height="1080"/>
<g>
	<linearGradient id="SVGID_1_" gradientUnits="userSpaceOnUse" x1="174.8335" y1="572.7408" x2="176.3904" y2="572.7408">
		<stop  offset="0" style="stop-color:#FEB62C"/>
		<stop  offset="1" style="stop-color:#F98524"/>
	</linearGradient>
	<path class="st1" d="M174.83,572.16c0.49,0.36,1.02,0.76,1.56,1.16c-0.22-0.13-0.44-0.27-0.67-0.45
		C175.41,572.65,175.1,572.43,174.83,572.16z"/>
	
		<linearGradient id="SVGID_00000002357089475434184110000002974220669422143106_" gradientUnits="userSpaceOnUse" x1="171.8531" y1="539.9554" x2="191.7378" y2="539.9554">
		<stop  offset="0" style="stop-color:#FEB62C"/>
		<stop  offset="1" style="stop-color:#F98524"/>
	</linearGradient>
	<path style="fill:url(#SVGID_00000002357089475434184110000002974220669422143106_);" d="M177.5,544.85
		c-2.36-2.8-4.23-5.96-5.65-9.56c1.73-3.6,3.78-6.94,6.27-10.01c-0.18,4,0.49,8.1,1.78,12.14c0.27,0.8,0.53,1.56,0.85,2.31
		c1.42,3.6,3.29,6.76,5.65,9.56c1.65,1.96,3.43,3.69,5.34,5.12c-0.04,0.09-0.04,0.13-0.04,0.22c-1.47-0.44-2.94-1.02-4.31-1.73
		C183.64,550.94,180.35,548.27,177.5,544.85z"/>
	
		<linearGradient id="SVGID_00000020365765200570348620000001360831846445574303_" gradientUnits="userSpaceOnUse" x1="179.7268" y1="577.7332" x2="188.2659" y2="577.7332">
		<stop  offset="0" style="stop-color:#FEB62C"/>
		<stop  offset="1" style="stop-color:#F98524"/>
	</linearGradient>
	<path style="fill:url(#SVGID_00000020365765200570348620000001360831846445574303_);" d="M188.27,579.88
		c-1.24-0.5-2.5-0.95-3.69-1.53c-1.69-0.85-3.29-1.73-4.85-2.76C182.67,577.41,185.54,578.77,188.27,579.88z"/>
	
		<linearGradient id="SVGID_00000012458149836226045800000008831102467059923073_" gradientUnits="userSpaceOnUse" x1="192.5311" y1="582.1331" x2="197.6098" y2="582.1331">
		<stop  offset="0" style="stop-color:#FEB62C"/>
		<stop  offset="1" style="stop-color:#F98524"/>
	</linearGradient>
	<path style="fill:url(#SVGID_00000012458149836226045800000008831102467059923073_);" d="M197.61,582.84
		c-1.52-0.34-3.26-0.83-5.08-1.41C194.2,581.95,195.87,582.47,197.61,582.84z"/>
	
		<linearGradient id="SVGID_00000121244613205304822220000006177076242518448558_" gradientUnits="userSpaceOnUse" x1="189.6574" y1="580.9417" x2="192.5311" y2="580.9417">
		<stop  offset="0" style="stop-color:#FEB62C"/>
		<stop  offset="1" style="stop-color:#F98524"/>
	</linearGradient>
	<path style="fill:url(#SVGID_00000121244613205304822220000006177076242518448558_);" d="M192.53,581.43
		c-0.97-0.3-1.93-0.62-2.87-0.97C190.65,580.83,191.59,581.13,192.53,581.43z"/>
	
		<linearGradient id="SVGID_00000015349340021984403380000008391725521563661211_" gradientUnits="userSpaceOnUse" x1="188.2659" y1="580.1673" x2="189.6574" y2="580.1673">
		<stop  offset="0" style="stop-color:#FEB62C"/>
		<stop  offset="1" style="stop-color:#F98524"/>
	</linearGradient>
	<path style="fill:url(#SVGID_00000015349340021984403380000008391725521563661211_);" d="M189.66,580.46
		c-0.45-0.17-0.93-0.39-1.39-0.58C188.73,580.07,189.19,580.28,189.66,580.46z"/>
	<g>
		<g>
			<path class="st0" d="M349.46,587.5c-6.22,0-12.01-1.02-17.35-3.05c-5.34-2.03-9.97-4.94-13.89-8.7
				c-3.92-3.76-6.97-8.18-9.16-13.25s-3.29-10.64-3.29-16.71c0-6.07,1.1-11.64,3.29-16.71c2.19-5.07,5.26-9.49,9.22-13.25
				c3.96-3.76,8.59-6.66,13.89-8.7c5.3-2.04,11.1-3.05,17.4-3.05c6.99,0,13.32,1.21,18.96,3.63c5.64,2.42,10.39,5.98,14.23,10.66
				l-11.99,11.06c-2.77-3.15-5.84-5.51-9.22-7.09c-3.38-1.57-7.07-2.36-11.07-2.36c-3.77,0-7.22,0.62-10.37,1.84
				c-3.15,1.23-5.88,3-8.18,5.3c-2.3,2.3-4.09,5.03-5.36,8.18c-1.27,3.15-1.9,6.65-1.9,10.49s0.63,7.34,1.9,10.49
				c1.27,3.15,3.05,5.88,5.36,8.18c2.3,2.3,5.03,4.07,8.18,5.3c3.15,1.23,6.61,1.84,10.37,1.84c4,0,7.68-0.79,11.07-2.36
				c3.38-1.57,6.45-3.98,9.22-7.2l11.99,11.07c-3.84,4.69-8.59,8.26-14.23,10.72C362.89,586.27,356.53,587.5,349.46,587.5z"/>
			<path class="st0" d="M432.79,587.5c-6.38,0-12.27-1.04-17.69-3.11c-5.42-2.08-10.11-4.99-14.06-8.76
				c-3.96-3.76-7.03-8.18-9.22-13.25s-3.29-10.6-3.29-16.6c0-5.99,1.1-11.53,3.29-16.6s5.28-9.49,9.28-13.25
				c4-3.76,8.68-6.68,14.06-8.76c5.38-2.08,11.22-3.11,17.52-3.11c6.38,0,12.23,1.04,17.57,3.11s9.99,5,13.95,8.76
				c3.96,3.77,7.05,8.16,9.28,13.2c2.23,5.03,3.34,10.59,3.34,16.66c0,5.99-1.11,11.55-3.34,16.65c-2.23,5.11-5.32,9.53-9.28,13.26
				c-3.96,3.73-8.61,6.63-13.95,8.7C444.91,586.47,439.09,587.5,432.79,587.5z M432.68,571.6c3.61,0,6.93-0.61,9.97-1.84
				c3.03-1.23,5.7-3,8.01-5.3c2.3-2.31,4.09-5.03,5.36-8.18c1.27-3.15,1.9-6.64,1.9-10.49s-0.63-7.34-1.9-10.49
				c-1.27-3.15-3.04-5.88-5.3-8.18c-2.27-2.31-4.94-4.07-8.01-5.3c-3.07-1.23-6.41-1.84-10.02-1.84s-6.94,0.62-9.97,1.84
				c-3.04,1.23-5.71,3-8.01,5.3c-2.3,2.3-4.09,5.03-5.36,8.18c-1.27,3.15-1.9,6.65-1.9,10.49c0,3.77,0.63,7.24,1.9,10.43
				s3.03,5.94,5.3,8.24c2.27,2.3,4.94,4.07,8.01,5.3S429.06,571.6,432.68,571.6z"/>
			<path class="st0" d="M546.43,510.57c6.38,3.42,11.37,8.2,14.99,14.35c3.61,6.15,5.42,13.1,5.42,20.86s-1.82,14.7-5.48,20.8
				c-3.65,6.11-8.7,10.89-15.15,14.35c-6.46,3.46-13.79,5.19-22.02,5.19h-32.96v-80.68h33.54
				C532.83,505.44,540.06,507.15,546.43,510.57z M538.43,569.12c3.96-2.27,7.05-5.42,9.28-9.45c2.23-4.03,3.34-8.62,3.34-13.77
				s-1.15-9.78-3.46-13.89c-2.3-4.11-5.48-7.3-9.51-9.57c-4.03-2.27-8.55-3.4-13.54-3.4h-17.86v53.48h18.44
				C530.03,572.52,534.47,571.39,538.43,569.12z"/>
			<path class="st0" d="M593.23,500.48c1.62,1.69,2.42,3.84,2.42,6.45c0,2.54-0.81,4.65-2.42,6.34c-1.61,1.69-3.65,2.53-6.11,2.53
				c-2.46,0-4.5-0.84-6.11-2.53c-1.62-1.69-2.42-3.8-2.42-6.34c0-2.61,0.81-4.76,2.42-6.45c1.61-1.69,3.65-2.53,6.11-2.53
				C589.58,497.95,591.62,498.8,593.23,500.48z M579.74,524.46h14.98v61.66h-14.98V524.46z"/>
			<path class="st0" d="M669.64,524.46v55.78c0,5.84-1.33,10.93-3.98,15.27c-2.65,4.34-6.42,7.68-11.29,10.03
				c-4.88,2.34-10.55,3.52-17,3.52c-9.37,0-18.06-2.73-26.05-8.19l5.99-10.83c5.84,4.3,12.26,6.45,19.25,6.45
				c5.53,0,9.93-1.42,13.2-4.27c3.26-2.84,4.9-6.72,4.9-11.64v-7.26c-2.07,3.15-4.77,5.55-8.07,7.21
				c-3.31,1.65-7.15,2.48-11.53,2.48c-5.38,0-10.14-1.25-14.29-3.75s-7.38-5.99-9.68-10.49c-2.3-4.5-3.46-9.66-3.46-15.5
				c0-5.76,1.15-10.85,3.46-15.27c2.3-4.42,5.53-7.86,9.68-10.32c4.15-2.46,8.91-3.69,14.29-3.69c4.3,0,8.12,0.85,11.47,2.54
				c3.34,1.69,6.05,4.07,8.12,7.15v-9.22H669.64z M650.1,566.35c3.04-3.27,4.55-7.51,4.55-12.74s-1.52-9.47-4.55-12.74
				c-3.04-3.27-6.97-4.9-11.81-4.9c-4.84,0-8.78,1.65-11.81,4.96c-3.04,3.31-4.59,7.53-4.67,12.68c0.08,5.23,1.63,9.47,4.67,12.74
				c3.03,3.27,6.97,4.9,11.81,4.9C643.13,571.25,647.07,569.62,650.1,566.35z"/>
			<path class="st0" d="M700.76,500.48c1.62,1.69,2.42,3.84,2.42,6.45c0,2.54-0.81,4.65-2.42,6.34c-1.61,1.69-3.65,2.53-6.11,2.53
				c-2.46,0-4.5-0.84-6.11-2.53c-1.62-1.69-2.42-3.8-2.42-6.34c0-2.61,0.81-4.76,2.42-6.45c1.61-1.69,3.65-2.53,6.11-2.53
				C697.11,497.95,699.15,498.8,700.76,500.48z M687.28,524.46h14.98v61.66h-14.98V524.46z"/>
			<path class="st0" d="M756.89,582.32c-4.92,3-10.07,4.5-15.45,4.5c-5.3,0-9.64-1.56-13.02-4.67c-3.39-3.11-5.07-7.7-5.07-13.77
				v-30.43h-8.64l-0.11-10.95h8.76v-16.94h14.87v16.94h17.64v10.95h-17.64v27.78c0,2.84,0.54,4.86,1.62,6.05
				c1.07,1.19,2.69,1.79,4.84,1.79c2.31,0,5.23-0.84,8.76-2.53L756.89,582.32z"/>
			<path class="st0" d="M805.06,586.12v-7.49c-2.15,2.69-4.92,4.73-8.3,6.11c-3.39,1.38-7.26,2.08-11.65,2.08
				c-4.3,0-8.09-0.83-11.35-2.48c-3.27-1.65-5.78-3.94-7.55-6.86c-1.77-2.92-2.65-6.18-2.65-9.8c0-5.76,2.04-10.28,6.11-13.54
				c4.07-3.27,9.83-4.94,17.29-5.01h17.98v-1.61c0-3.61-1.19-6.42-3.58-8.41s-5.84-3-10.37-3c-5.84,0-11.95,1.92-18.33,5.76
				l-5.42-10.37c4.84-2.69,9.24-4.63,13.2-5.82c3.96-1.19,8.59-1.79,13.89-1.79c7.99,0,14.19,1.92,18.61,5.76
				c4.42,3.84,6.66,9.22,6.74,16.14l0.12,40.34H805.06z M799.76,572.23c3.07-2.04,4.8-4.55,5.19-7.55v-5.53h-15.56
				c-4,0-6.94,0.6-8.82,1.79c-1.89,1.19-2.82,3.13-2.82,5.82c0,2.61,0.98,4.69,2.94,6.23c1.96,1.54,4.63,2.3,8.01,2.3
				C793,575.29,796.69,574.27,799.76,572.23z"/>
			<path class="st0" d="M837.22,500.6h14.99v85.52h-14.99V500.6z"/>
			<path class="st0" d="M919.34,532.41c4.96,5.61,7.44,13.49,7.44,23.63c0,2-0.04,3.5-0.12,4.49h-45.53c1,4.38,3.05,7.82,6.16,10.31
				c3.11,2.5,6.93,3.75,11.47,3.75c3.15,0,6.17-0.6,9.05-1.79c2.88-1.19,5.4-2.9,7.55-5.13l8.07,8.41
				c-3.07,3.38-6.82,5.99-11.24,7.84s-9.32,2.77-14.7,2.77c-6.3,0-11.85-1.31-16.66-3.92c-4.8-2.61-8.51-6.28-11.12-11.01
				c-2.62-4.73-3.92-10.16-3.92-16.31c0-6.15,1.33-11.6,3.98-16.37c2.65-4.76,6.35-8.47,11.12-11.12
				c4.76-2.65,10.18-3.98,16.25-3.98C906.99,524,914.39,526.8,919.34,532.41z M913.06,550.51c-0.15-4.53-1.65-8.14-4.49-10.83
				c-2.84-2.69-6.61-4.03-11.3-4.03c-4.38,0-8.05,1.32-11.01,3.98c-2.96,2.65-4.78,6.28-5.47,10.89H913.06z"/>
		</g>
		
			<linearGradient id="SVGID_00000054964161961956088010000002215045136830450304_" gradientUnits="userSpaceOnUse" x1="222.7697" y1="517.1264" x2="225.0413" y2="611.9644">
			<stop  offset="0" style="stop-color:#FEB62C"/>
			<stop  offset="1" style="stop-color:#F98524"/>
		</linearGradient>
		<path style="fill:url(#SVGID_00000054964161961956088010000002215045136830450304_);" d="M281.29,559.88
			c0,8.14-1.47,15.66-4.45,22.55c-2.98,6.81-6.98,12.81-12.14,17.88c-5.12,5.07-11.17,9.03-18.24,11.92
			c-6.98,2.8-14.59,4.23-22.69,4.23c-7.92,0-15.39-1.42-22.38-4.23c-6.98-2.89-13.08-6.85-18.28-11.92
			c-1.38-1.33-2.67-2.71-3.87-4.18c-4.72-5.56-7.25-10.85-8.5-13.7c-3.11-7.3-4.09-13.92-4.36-18.46c0.31,0.36,0.58,0.71,0.89,1.02
			c2.31,2.67,4.85,5.07,7.56,7.16c0.27,0.27,0.58,0.49,0.89,0.71c0.22,0.18,0.44,0.31,0.67,0.45c1.07,0.85,2.18,1.6,3.34,2.27
			c1.56,1.02,3.16,1.91,4.85,2.76c4.09,2,8.45,3.51,13.03,4.49c0.36,0.09,0.71,0.13,1.07,0.22c0.4,0.09,0.8,0.18,1.16,0.22
			c1.56,1.69,4,3.96,7.43,5.96c1.6,0.98,2.98,1.6,3.6,1.87c3.96,1.69,8.27,2.54,12.9,2.54c4.49,0,8.76-0.85,12.72-2.62
			c4-1.73,7.43-4.09,10.41-7.12c2.94-2.98,5.2-6.58,6.85-10.68c1.29-3.25,2.09-6.67,2.36-10.32c0.09-0.98,0.13-2,0.13-3.02
			c0-4.49-0.76-8.72-2.27-12.63c-0.04-0.18-0.13-0.36-0.22-0.58c-1.65-4.05-3.91-7.61-6.85-10.63c-0.8-0.8-1.6-1.56-2.49-2.31
			c-2.18-1.78-4.58-3.29-7.25-4.54c-0.22-0.09-0.44-0.18-0.67-0.27c-3.96-1.73-8.23-2.62-12.72-2.62c-4.63,0-8.94,0.89-12.9,2.62
			c-3.87,1.78-7.3,4.14-10.28,7.12c-2.94,3.02-5.25,6.58-6.9,10.72c-0.93,2.4-1.65,5.03-1.96,7.65c-1.91-1.42-3.69-3.16-5.34-5.12
			c-2.36-2.8-4.23-5.96-5.65-9.56c-0.31-0.76-0.58-1.51-0.85-2.31c-1.29-4.05-1.96-8.14-1.78-12.14c1.47-2,3.16-3.87,4.98-5.61
			c5.2-5.07,11.3-9.03,18.28-11.92c6.98-2.8,14.46-4.27,22.38-4.27c8.1,0,15.7,1.47,22.69,4.27c7.07,2.89,13.12,6.85,18.24,11.92
			c5.16,5.07,9.16,11.03,12.14,17.88C279.82,544.45,281.29,551.88,281.29,559.88z"/>
		
			<linearGradient id="SVGID_00000063630019073089410900000010373710540502396576_" gradientUnits="userSpaceOnUse" x1="207.9134" y1="570.4836" x2="197.1234" y2="481.3244">
			<stop  offset="0" style="stop-color:#2B9FBB"/>
			<stop  offset="1" style="stop-color:#90CBE5"/>
		</linearGradient>
		<path style="fill:url(#SVGID_00000063630019073089410900000010373710540502396576_);" d="M256.24,559.88
			c0,1.02-0.04,2.05-0.13,3.02c-0.53,0.76-1.16,1.51-1.78,2.22c-6.14,7.12-14.41,12.32-24.96,15.79
			c-7.92,2.58-15.75,3.65-23.44,3.07c-0.04,0-0.04,0-0.09,0c-2.45-0.18-4.85-0.49-7.16-0.93c-0.36-0.09-0.71-0.13-1.07-0.22
			c-1.52-0.34-3.26-0.83-5.08-1.41c-0.97-0.3-1.93-0.62-2.87-0.97c-0.45-0.17-0.93-0.39-1.39-0.58c-1.24-0.5-2.5-0.95-3.69-1.53
			c-1.69-0.85-3.29-1.73-4.85-2.76c-1.11-0.71-2.22-1.47-3.34-2.27c-0.22-0.13-0.44-0.27-0.67-0.45c-0.31-0.22-0.62-0.44-0.89-0.71
			c-2.71-2.09-5.25-4.49-7.56-7.16c-0.31-0.31-0.58-0.67-0.89-1.02c-4.54-5.43-7.92-11.7-10.28-18.77
			c-2.45-7.52-3.34-14.99-2.67-22.38c0.67-7.43,2.71-14.28,6.01-20.69c3.25-6.45,7.78-12.14,13.61-17.13
			c1.78-1.51,9.08-7.52,20.51-11.3c12.23-4,22.95-3.38,29.18-2.54c0.27-2.54,0.53-5.12,0.85-7.65c5.34,7.7,10.72,15.35,16.06,23.04
			c-6.05,5.43-12.14,10.85-18.24,16.28c-0.09-2.4-0.18-4.85-0.27-7.25c-3.34-1.02-11.61-3.11-20.95-0.04
			c-6.32,2.09-10.41,5.65-11.34,6.49c-3.2,2.89-5.69,6.18-7.52,9.96c-1.82,3.78-2.85,7.83-3.16,12.23c0,0.36-0.04,0.67-0.04,1.02
			c-0.18,4,0.49,8.1,1.78,12.14c0.27,0.8,0.53,1.56,0.85,2.31c1.42,3.6,3.29,6.76,5.65,9.56c1.65,1.96,3.43,3.69,5.34,5.12
			c1.42,1.16,2.94,2.09,4.54,2.94c1.38,0.71,2.85,1.29,4.31,1.73c2.49,0.93,5.16,1.51,7.92,1.73c4.4,0.4,8.85-0.13,13.39-1.65
			c6.32-2.05,11.39-5.38,15.17-9.96c0.4-0.49,1.87-2.27,3.38-4.85c2.31-4.09,3.43-7.92,3.96-10.63c0.89,0.76,1.69,1.51,2.49,2.31
			c2.94,3.02,5.2,6.58,6.85,10.63c0.09,0.22,0.18,0.4,0.22,0.58C255.48,551.17,256.24,555.39,256.24,559.88z"/>
	</g>
	<path class="st10" d="M199.84,583.28c-3.45,0.52-8.46,0.86-14.33-0.17c-7.9-1.4-13.7-4.65-16.99-6.85
		c-0.63-2.15-1.21-4.6-1.62-7.32c-0.26-1.76-0.43-3.42-0.52-4.96c2.81,3.37,7.4,8.08,14.16,12.14
		C188.16,580.68,195.29,582.49,199.84,583.28z"/>
	<path class="st11" d="M256.24,559.88c0,1.02-0.04,2.05-0.13,3.02c-0.53,0.76-1.16,1.51-1.78,2.22c-1.6,1.87-3.34,3.6-5.25,5.16
		c0.18-0.4,0.36-0.8,0.53-1.2c1.29-3.25,2.09-6.67,2.36-10.32c0.09-0.98,0.13-2,0.13-3.02c0-4.49-0.76-8.72-2.27-12.63
		c-0.04-0.18-0.13-0.36-0.22-0.58c-1.33-3.25-3.02-6.18-5.2-8.76v-0.04c0.89,0.76,1.69,1.51,2.49,2.31
		c2.94,3.02,5.2,6.58,6.85,10.63c0.09,0.22,0.18,0.4,0.22,0.58C255.48,551.17,256.24,555.39,256.24,559.88z"/>
</g>
</svg>
