<?xml version="1.0" encoding="utf-8"?>
<!-- Generator: Adobe Illustrator 26.0.1, SVG Export Plug-In . SVG Version: 6.00 Build 0)  -->
<svg version="1.1" id="Layer_1" xmlns="http://www.w3.org/2000/svg" xmlns:xlink="http://www.w3.org/1999/xlink" x="0px" y="0px"
	 viewBox="0 0 1080 1080" style="enable-background:new 0 0 1080 1080;" xml:space="preserve">
<style type="text/css">
	.st0{fill:#FFFFFF;}
	.st1{fill:url(#SVGID_1_);}
	.st2{fill:url(#SVGID_00000005975982573720398500000011076474098937030567_);}
	.st3{fill:url(#SVGID_00000103962019100357786580000002979656282193357442_);}
	.st4{fill:url(#SVGID_00000044892633267437865160000016470395580061940393_);}
	.st5{fill:url(#SVGID_00000167359556757869299130000017697442138506962316_);}
	.st6{fill:url(#SVGID_00000174573685788351640130000012741736866480519559_);}
	.st7{fill:#053146;}
	.st8{fill:url(#SVGID_00000147208643576457901170000003919540700236356506_);}
	.st9{fill:url(#SVGID_00000107589521968113834000000004075317653642261670_);}
	.st10{opacity:0.39;}
	.st11{opacity:0.31;}
	.st12{fill:url(#SVGID_00000103246962422297405300000012656655158564439948_);}
	.st13{fill:url(#SVGID_00000082361235257564791080000007908228984395158438_);}
	.st14{fill:url(#SVGID_00000062902817835165961100000006907111432938216115_);}
	.st15{fill:url(#SVGID_00000091713626616926689760000009444951827229148828_);}
	.st16{fill:url(#SVGID_00000019644326687433483280000011208991171333661327_);}
	.st17{fill:url(#SVGID_00000126306916187873251410000012635603476037277117_);}
	.st18{fill:url(#SVGID_00000044166467301699167600000010131792781241167532_);}
	.st19{fill:url(#SVGID_00000045597782049744897630000014208015414928039333_);}
	.st20{fill:url(#SVGID_00000130611760190270969610000014350197354809040265_);}
	.st21{fill:url(#SVGID_00000003822413555874556060000017928125665892476051_);}
	.st22{fill:url(#SVGID_00000026867857393169193700000008212057095429544854_);}
	.st23{fill:url(#SVGID_00000150812891650690010100000001792756821221267355_);}
	.st24{fill:url(#SVGID_00000114050575719023805070000014188941364727409830_);}
	.st25{fill:url(#SVGID_00000083061220326773591700000007403970998283677624_);}
	.st26{fill:url(#SVGID_00000150781897290861611840000013620591785648480936_);}
	.st27{fill:url(#SVGID_00000042714631139055449500000001386330014040251520_);}
	.st28{fill:url(#SVGID_00000029030909113956005150000005563952081186191495_);}
	.st29{fill:url(#SVGID_00000044899317148417272240000002035047833199330715_);}
	.st30{fill:url(#SVGID_00000098914679683152864600000015135074219748899992_);}
	.st31{fill:url(#SVGID_00000122707263604818155110000007238290006350636725_);}
	.st32{fill:url(#SVGID_00000169529436198596245960000015901014980949334936_);}
	.st33{fill:url(#SVGID_00000072995384379230082170000003651256185169678234_);}
	.st34{fill:url(#SVGID_00000013191701274707345860000005633047762285142462_);}
	.st35{fill:url(#SVGID_00000007389328707269852570000000527875936982111127_);}
	.st36{fill:url(#SVGID_00000017474027001466889300000000562217997630681001_);}
	.st37{fill:url(#SVGID_00000000944216378041244710000007979644544994082444_);}
	.st38{fill:url(#SVGID_00000119818661284266830540000001448143776078379137_);}
	.st39{fill:url(#SVGID_00000119111990544168522550000000419145215635702965_);}
	.st40{fill:url(#SVGID_00000085933490513177977860000002960726525878615192_);}
	.st41{fill:url(#SVGID_00000121978162535875798260000003901470949742160304_);}
	.st42{fill:url(#SVGID_00000114767523364379828600000012405224284033887387_);}
	.st43{fill:url(#SVGID_00000121983188360836797460000008956345315666213557_);}
	.st44{fill:url(#SVGID_00000104683255540352576450000016436398594006130351_);}
	.st45{fill:url(#SVGID_00000131327172266818199740000004260737711311929760_);}
	.st46{fill:url(#SVGID_00000005232878096471635190000009985796467160640419_);}
	.st47{fill:url(#SVGID_00000106864272223654589270000016863018320977821107_);}
	.st48{fill:url(#SVGID_00000072989590447241428630000014987385608576435121_);}
	.st49{fill:url(#SVGID_00000052084719040631748470000013440789443677455242_);}
	.st50{fill:url(#SVGID_00000095314969215113768250000013195169230648086460_);}
	.st51{fill:url(#SVGID_00000005945079377349564280000003923622632673201555_);}
</style>
<rect class="st7" width="1080" height="1080"/>
<g>
	<g>
		<linearGradient id="SVGID_1_" gradientUnits="userSpaceOnUse" x1="419.1317" y1="633.2886" x2="423.5677" y2="633.2886">
			<stop  offset="0" style="stop-color:#FEB62C"/>
			<stop  offset="1" style="stop-color:#F98524"/>
		</linearGradient>
		<path class="st1" d="M419.13,631.64c1.39,1.01,2.92,2.15,4.44,3.3c-0.63-0.38-1.27-0.76-1.9-1.27
			C420.78,633.03,419.89,632.4,419.13,631.64z"/>
		
			<linearGradient id="SVGID_00000084526767834140692740000015565492696423664060_" gradientUnits="userSpaceOnUse" x1="410.6396" y1="539.8731" x2="467.2969" y2="539.8731">
			<stop  offset="0" style="stop-color:#FEB62C"/>
			<stop  offset="1" style="stop-color:#F98524"/>
		</linearGradient>
		<path style="fill:url(#SVGID_00000084526767834140692740000015565492696423664060_);" d="M426.74,553.82
			c-6.72-7.99-12.04-16.98-16.1-27.25c4.94-10.27,10.77-19.77,17.87-28.52c-0.51,11.41,1.39,23.07,5.07,34.6
			c0.76,2.28,1.52,4.44,2.41,6.59c4.06,10.27,9.38,19.27,16.1,27.25c4.69,5.58,9.76,10.52,15.21,14.58
			c-0.13,0.25-0.13,0.38-0.13,0.63c-4.18-1.27-8.37-2.92-12.29-4.94C444.23,571.18,434.85,563.58,426.74,553.82z"/>
		
			<linearGradient id="SVGID_00000065073983083454782760000003054944807942038153_" gradientUnits="userSpaceOnUse" x1="433.074" y1="647.5132" x2="457.4045" y2="647.5132">
			<stop  offset="0" style="stop-color:#FEB62C"/>
			<stop  offset="1" style="stop-color:#F98524"/>
		</linearGradient>
		<path style="fill:url(#SVGID_00000065073983083454782760000003054944807942038153_);" d="M457.4,653.63
			c-3.52-1.42-7.12-2.7-10.51-4.37c-4.82-2.41-9.38-4.94-13.82-7.86C441.45,646.6,449.63,650.47,457.4,653.63z"/>
		
			<linearGradient id="SVGID_00000034072820310369600940000002004830745737064360_" gradientUnits="userSpaceOnUse" x1="469.5574" y1="660.0499" x2="484.0281" y2="660.0499">
			<stop  offset="0" style="stop-color:#FEB62C"/>
			<stop  offset="1" style="stop-color:#F98524"/>
		</linearGradient>
		<path style="fill:url(#SVGID_00000034072820310369600940000002004830745737064360_);" d="M484.03,662.06
			c-4.34-0.97-9.29-2.38-14.47-4.02C474.32,659.53,479.08,661,484.03,662.06z"/>
		
			<linearGradient id="SVGID_00000054953052140584906510000007859261909778490538_" gradientUnits="userSpaceOnUse" x1="461.3694" y1="656.6552" x2="469.5574" y2="656.6552">
			<stop  offset="0" style="stop-color:#FEB62C"/>
			<stop  offset="1" style="stop-color:#F98524"/>
		</linearGradient>
		<path style="fill:url(#SVGID_00000054953052140584906510000007859261909778490538_);" d="M469.56,658.04
			c-2.76-0.86-5.49-1.76-8.19-2.77C464.21,656.34,466.89,657.19,469.56,658.04z"/>
		
			<linearGradient id="SVGID_00000008142343251970429610000008200583202331492773_" gradientUnits="userSpaceOnUse" x1="457.4045" y1="654.4488" x2="461.3694" y2="654.4488">
			<stop  offset="0" style="stop-color:#FEB62C"/>
			<stop  offset="1" style="stop-color:#F98524"/>
		</linearGradient>
		<path style="fill:url(#SVGID_00000008142343251970429610000008200583202331492773_);" d="M461.37,655.27
			c-1.29-0.49-2.64-1.11-3.96-1.65C458.73,654.16,460.02,654.77,461.37,655.27z"/>
		<g>
			
				<linearGradient id="SVGID_00000069366450977123283530000008856723741609998466_" gradientUnits="userSpaceOnUse" x1="555.7165" y1="474.8261" x2="562.1888" y2="745.0485">
				<stop  offset="0" style="stop-color:#FEB62C"/>
				<stop  offset="1" style="stop-color:#F98524"/>
			</linearGradient>
			<path style="fill:url(#SVGID_00000069366450977123283530000008856723741609998466_);" d="M722.45,596.66
				c0,23.2-4.18,44.62-12.68,64.26c-8.49,19.39-19.9,36.5-34.6,50.95c-14.58,14.45-31.81,25.73-51.97,33.97
				c-19.9,7.99-41.57,12.04-64.64,12.04c-22.56,0-43.86-4.06-63.76-12.04c-19.9-8.24-37.26-19.52-52.1-33.97
				c-3.93-3.8-7.6-7.73-11.03-11.91c-13.44-15.84-20.66-30.93-24.21-39.04c-8.87-20.79-11.66-39.67-12.42-52.6
				c0.89,1.01,1.65,2.03,2.54,2.92c6.59,7.6,13.82,14.45,21.55,20.41c0.76,0.76,1.65,1.39,2.54,2.03c0.63,0.51,1.27,0.89,1.9,1.27
				c3.04,2.41,6.21,4.56,9.51,6.46c4.44,2.92,9,5.45,13.82,7.86c11.66,5.7,24.08,10.01,37.14,12.8c1.01,0.25,2.03,0.38,3.04,0.63
				c1.14,0.25,2.28,0.51,3.3,0.63c4.44,4.82,11.41,11.28,21.17,16.98c4.56,2.79,8.49,4.56,10.27,5.32
				c11.28,4.82,23.58,7.22,36.76,7.22c12.8,0,24.97-2.41,36.25-7.48c11.41-4.94,21.17-11.66,29.66-20.28
				c8.37-8.49,14.83-18.76,19.52-30.42c3.68-9.25,5.96-19.01,6.72-29.41c0.25-2.79,0.38-5.7,0.38-8.62c0-12.8-2.15-24.84-6.46-36
				c-0.13-0.51-0.38-1.01-0.63-1.65c-4.69-11.53-11.15-21.67-19.52-30.29c-2.28-2.28-4.56-4.44-7.1-6.59
				c-6.21-5.07-13.06-9.38-20.66-12.93c-0.63-0.25-1.27-0.51-1.9-0.76c-11.28-4.94-23.45-7.48-36.25-7.48
				c-13.18,0-25.48,2.54-36.76,7.48c-11.03,5.07-20.79,11.79-29.28,20.28c-8.37,8.62-14.96,18.76-19.65,30.55
				c-2.66,6.85-4.69,14.32-5.58,21.8c-5.45-4.06-10.52-9-15.21-14.58c-6.72-7.99-12.04-16.98-16.1-27.25
				c-0.89-2.16-1.65-4.31-2.41-6.59c-3.68-11.53-5.58-23.2-5.07-34.6c4.18-5.7,9-11.03,14.2-15.97
				c14.83-14.45,32.2-25.73,52.1-33.97c19.9-7.99,41.19-12.17,63.76-12.17c23.07,0,44.74,4.18,64.64,12.17
				c20.15,8.24,37.39,19.52,51.97,33.97c14.7,14.45,26.11,31.43,34.6,50.95C718.26,552.68,722.45,573.84,722.45,596.66z"/>
			
				<linearGradient id="SVGID_00000041258838167627014170000004878102142652224405_" gradientUnits="userSpaceOnUse" x1="513.3862" y1="626.8569" x2="482.6423" y2="372.8155">
				<stop  offset="0" style="stop-color:#2B9FBB"/>
				<stop  offset="1" style="stop-color:#90CBE5"/>
			</linearGradient>
			<path style="fill:url(#SVGID_00000041258838167627014170000004878102142652224405_);" d="M651.09,596.66
				c0,2.92-0.13,5.83-0.38,8.62c-1.52,2.16-3.3,4.31-5.07,6.34c-17.49,20.28-41.07,35.11-71.11,45
				c-22.56,7.35-44.87,10.39-66.8,8.75c-0.13,0-0.13,0-0.25,0c-6.97-0.51-13.82-1.39-20.41-2.66c-1.01-0.25-2.03-0.38-3.04-0.63
				c-4.34-0.97-9.29-2.38-14.47-4.02c-2.76-0.86-5.49-1.76-8.19-2.77c-1.29-0.49-2.64-1.11-3.96-1.65
				c-3.52-1.42-7.12-2.7-10.51-4.37c-4.82-2.41-9.38-4.94-13.82-7.86c-3.17-2.03-6.34-4.18-9.51-6.46c-0.63-0.38-1.27-0.76-1.9-1.27
				c-0.89-0.63-1.77-1.27-2.54-2.03c-7.73-5.96-14.96-12.8-21.55-20.41c-0.89-0.89-1.65-1.9-2.54-2.92
				c-12.93-15.46-22.56-33.34-29.28-53.49c-6.97-21.42-9.51-42.72-7.6-63.76c1.9-21.17,7.73-40.69,17.11-58.94
				c9.25-18.38,22.18-34.6,38.79-48.8c5.07-4.31,25.86-21.42,58.43-32.19c34.86-11.41,65.4-9.63,83.15-7.22
				c0.76-7.22,1.52-14.58,2.41-21.8c15.21,21.93,30.55,43.73,45.76,65.66c-17.24,15.46-34.6,30.93-51.97,46.39
				c-0.25-6.84-0.51-13.82-0.76-20.66c-9.51-2.92-33.08-8.87-59.7-0.13c-18,5.96-29.66,16.1-32.32,18.51
				c-9.13,8.24-16.22,17.62-21.42,28.39c-5.2,10.77-8.11,22.31-9,34.86c0,1.01-0.13,1.9-0.13,2.92c-0.51,11.41,1.39,23.07,5.07,34.6
				c0.76,2.28,1.52,4.44,2.41,6.59c4.06,10.27,9.38,19.27,16.1,27.25c4.69,5.58,9.76,10.52,15.21,14.58
				c4.06,3.3,8.37,5.96,12.93,8.37c3.93,2.03,8.11,3.68,12.29,4.94c7.1,2.66,14.7,4.31,22.56,4.94c12.55,1.14,25.22-0.38,38.15-4.69
				c18-5.83,32.45-15.34,43.22-28.39c1.14-1.39,5.32-6.46,9.63-13.82c6.59-11.66,9.76-22.56,11.28-30.29
				c2.54,2.15,4.82,4.31,7.1,6.59c8.37,8.62,14.83,18.76,19.52,30.29c0.25,0.63,0.51,1.14,0.63,1.65
				C648.93,571.81,651.09,583.86,651.09,596.66z"/>
		</g>
		<path class="st10" d="M490.39,663.31c-9.83,1.48-24.09,2.46-40.82-0.5c-22.51-3.98-39.02-13.24-48.41-19.52
			c-1.79-6.12-3.44-13.11-4.61-20.87c-0.75-5-1.22-9.73-1.48-14.13c8.01,9.61,21.09,23.03,40.34,34.59
			C457.09,655.91,477.41,661.06,490.39,663.31z"/>
		<path class="st11" d="M651.09,596.66c0,2.92-0.13,5.83-0.38,8.62c-1.52,2.16-3.3,4.31-5.07,6.34c-4.56,5.32-9.51,10.27-14.96,14.7
			c0.51-1.14,1.01-2.28,1.52-3.42c3.68-9.25,5.96-19.01,6.72-29.41c0.25-2.79,0.38-5.7,0.38-8.62c0-12.8-2.15-24.84-6.46-36
			c-0.13-0.51-0.38-1.01-0.63-1.65c-3.8-9.25-8.62-17.62-14.83-24.97v-0.13c2.54,2.15,4.82,4.31,7.1,6.59
			c8.37,8.62,14.83,18.76,19.52,30.29c0.25,0.63,0.51,1.14,0.63,1.65C648.93,571.81,651.09,583.86,651.09,596.66z"/>
	</g>
</g>
</svg>
