<?xml version="1.0" encoding="utf-8"?>
<!-- Generator: Adobe Illustrator 26.0.1, SVG Export Plug-In . SVG Version: 6.00 Build 0)  -->
<svg version="1.1" id="Layer_1" xmlns="http://www.w3.org/2000/svg" xmlns:xlink="http://www.w3.org/1999/xlink" x="0px" y="0px"
	 viewBox="0 0 1080 1080" style="enable-background:new 0 0 1080 1080;" xml:space="preserve">
<style type="text/css">
	.st0{fill:#FFFFFF;}
	.st1{fill:url(#SVGID_1_);}
	.st2{fill:url(#SVGID_00000039816983341191707420000002275508309819463048_);}
	.st3{fill:url(#SVGID_00000182505948514981380140000001708079971167714746_);}
	.st4{fill:url(#SVGID_00000152226553702873975950000006506310785264198549_);}
	.st5{fill:url(#SVGID_00000121959473552933814820000000228696293119045266_);}
	.st6{fill:url(#SVGID_00000101825324218379793470000017153928422350814610_);}
	.st7{fill:#053146;}
	.st8{fill:url(#SVGID_00000178203553898266117790000007581873914167995777_);}
	.st9{fill:url(#SVGID_00000038372972545777904820000001712255925199781504_);}
	.st10{opacity:0.39;}
	.st11{opacity:0.31;}
	.st12{fill:url(#SVGID_00000083083290420788635190000003504428085374325905_);}
	.st13{fill:url(#SVGID_00000065054935659170866910000002803938924474377658_);}
	.st14{fill:url(#SVGID_00000128456425592305231520000008488266727751226811_);}
	.st15{fill:url(#SVGID_00000031184463921491386670000015168776159139831685_);}
	.st16{fill:url(#SVGID_00000013875807383658127950000007478209558348042379_);}
	.st17{fill:url(#SVGID_00000000216454550350853120000010501285467351386044_);}
	.st18{fill:url(#SVGID_00000093137600193978454210000017273316892152448681_);}
	.st19{fill:url(#SVGID_00000171682814377105227060000002068287150747883967_);}
	.st20{fill:url(#SVGID_00000047770313260338497600000007422026561044855711_);}
	.st21{fill:url(#SVGID_00000041986666195156895110000006844142516639145630_);}
	.st22{fill:url(#SVGID_00000085964991583359901670000009100790797273409449_);}
	.st23{fill:url(#SVGID_00000119081542756710078460000015606075879178439317_);}
	.st24{fill:url(#SVGID_00000053504111051973304260000011269270968154506419_);}
	.st25{fill:url(#SVGID_00000142175061700696406100000010407357389149554356_);}
	.st26{fill:url(#SVGID_00000018237691987990642700000006546516256898728122_);}
	.st27{fill:url(#SVGID_00000087405206768741585110000004644118128880030860_);}
	.st28{fill:url(#SVGID_00000083776050448194164260000005480816101702640023_);}
	.st29{fill:url(#SVGID_00000157293768546960567700000017802980019127577217_);}
	.st30{fill:url(#SVGID_00000090973681299151638230000004948677125537045410_);}
	.st31{fill:url(#SVGID_00000137108760340161690740000018387703581881953162_);}
	.st32{fill:url(#SVGID_00000029024111572560495100000008732792053998897800_);}
	.st33{fill:url(#SVGID_00000165215406237903818920000018291874725111129786_);}
	.st34{fill:url(#SVGID_00000155840807412195928360000011894334722303494562_);}
	.st35{fill:url(#SVGID_00000025428750652911616390000015878033730445419918_);}
	.st36{fill:url(#SVGID_00000015330856644607250210000010519560604870551187_);}
	.st37{fill:url(#SVGID_00000000938985002129105030000016443895248117086348_);}
	.st38{fill:url(#SVGID_00000085222106951855575910000006358151506853307048_);}
	.st39{fill:url(#SVGID_00000109735521852568995330000008042758795217597878_);}
	.st40{fill:url(#SVGID_00000039839454015703390100000016013045310014805689_);}
	.st41{fill:url(#SVGID_00000090977144232688772170000015139587704679496618_);}
	.st42{fill:url(#SVGID_00000157269459424255638710000018295115104641645987_);}
	.st43{fill:url(#SVGID_00000124140642738500510290000017400845466221350552_);}
	.st44{fill:url(#SVGID_00000052788296649687067640000014749422338235171971_);}
	.st45{fill:url(#SVGID_00000070098484450756385850000003172986695785485473_);}
	.st46{fill:url(#SVGID_00000091016490559050567400000009431274505550876810_);}
	.st47{fill:url(#SVGID_00000074405871700653862420000006231927248456757658_);}
	.st48{fill:url(#SVGID_00000076575253985976514870000011579429186872631438_);}
	.st49{fill:url(#SVGID_00000077307036036995907380000018014984930664287422_);}
	.st50{fill:url(#SVGID_00000049911195197911148060000010203387581355234737_);}
	.st51{fill:url(#SVGID_00000067211303503033877010000014175148890081111211_);}
</style>
<rect class="st0" width="1080" height="1080"/>
<g>
	<g>
		<path class="st7" d="M393.75,665.26c-3.41,0-6.58-0.56-9.51-1.67c-2.93-1.12-5.47-2.71-7.61-4.77c-2.15-2.06-3.82-4.49-5.02-7.26
			c-1.2-2.78-1.8-5.83-1.8-9.16s0.6-6.38,1.8-9.16c1.2-2.78,2.89-5.2,5.05-7.26c2.17-2.06,4.71-3.65,7.61-4.77
			c2.9-1.12,6.09-1.67,9.54-1.67c3.83,0,7.3,0.66,10.39,1.99c3.09,1.33,5.7,3.28,7.8,5.84l-6.57,6.06c-1.52-1.73-3.2-3.02-5.05-3.88
			c-1.85-0.86-3.87-1.29-6.07-1.29c-2.06,0-3.96,0.34-5.69,1.01c-1.73,0.67-3.22,1.64-4.49,2.91c-1.26,1.26-2.24,2.76-2.94,4.49
			c-0.69,1.73-1.04,3.64-1.04,5.75s0.35,4.02,1.04,5.75c0.69,1.73,1.67,3.22,2.94,4.49c1.26,1.26,2.76,2.23,4.49,2.91
			c1.73,0.67,3.62,1.01,5.69,1.01c2.19,0,4.21-0.43,6.07-1.29c1.85-0.86,3.54-2.18,5.05-3.95l6.57,6.07
			c-2.11,2.57-4.71,4.53-7.8,5.87C401.11,664.59,397.63,665.26,393.75,665.26z"/>
		<path class="st7" d="M439.43,665.26c-3.5,0-6.73-0.57-9.7-1.71c-2.97-1.14-5.54-2.74-7.71-4.8c-2.17-2.06-3.85-4.49-5.05-7.26
			c-1.2-2.78-1.8-5.81-1.8-9.1c0-3.29,0.6-6.32,1.8-9.1c1.2-2.78,2.89-5.2,5.09-7.26c2.19-2.06,4.76-3.66,7.71-4.8
			c2.95-1.14,6.15-1.71,9.6-1.71c3.5,0,6.71,0.57,9.63,1.71s5.47,2.74,7.65,4.8c2.17,2.06,3.86,4.48,5.09,7.23
			c1.22,2.76,1.83,5.8,1.83,9.13c0,3.28-0.61,6.33-1.83,9.13c-1.22,2.8-2.92,5.22-5.09,7.27c-2.17,2.04-4.72,3.63-7.65,4.77
			S442.88,665.26,439.43,665.26z M439.36,656.54c1.98,0,3.8-0.34,5.47-1.01c1.66-0.67,3.13-1.64,4.39-2.91
			c1.26-1.26,2.24-2.76,2.94-4.49c0.69-1.73,1.04-3.64,1.04-5.75s-0.35-4.02-1.04-5.75c-0.69-1.73-1.66-3.22-2.91-4.49
			c-1.24-1.26-2.71-2.23-4.39-2.91s-3.52-1.01-5.49-1.01s-3.8,0.34-5.47,1.01c-1.66,0.67-3.13,1.64-4.39,2.91
			c-1.26,1.26-2.24,2.76-2.94,4.49c-0.69,1.73-1.04,3.64-1.04,5.75c0,2.06,0.35,3.97,1.04,5.72c0.69,1.75,1.66,3.25,2.9,4.52
			c1.24,1.26,2.71,2.23,4.39,2.91C435.55,656.21,437.38,656.54,439.36,656.54z"/>
		<path class="st7" d="M501.72,623.09c3.5,1.87,6.23,4.5,8.21,7.87c1.98,3.37,2.97,7.18,2.97,11.43s-1,8.05-3,11.4
			c-2,3.35-4.77,5.97-8.31,7.87c-3.54,1.9-7.56,2.84-12.07,2.84h-18.07v-44.22h18.38C494.26,620.28,498.22,621.22,501.72,623.09z
			 M497.33,655.19c2.17-1.24,3.86-2.97,5.09-5.18c1.22-2.21,1.83-4.73,1.83-7.55c0-2.82-0.63-5.36-1.9-7.61
			c-1.26-2.25-3-4-5.21-5.24c-2.21-1.24-4.69-1.86-7.42-1.86h-9.79v29.31h10.11C492.72,657.05,495.16,656.43,497.33,655.19z"/>
		<path class="st7" d="M527.36,617.57c0.89,0.93,1.33,2.11,1.33,3.54c0,1.39-0.44,2.55-1.33,3.48c-0.88,0.93-2,1.39-3.35,1.39
			c-1.35,0-2.47-0.46-3.35-1.39c-0.89-0.93-1.33-2.09-1.33-3.48c0-1.43,0.44-2.61,1.33-3.54c0.88-0.93,2-1.39,3.35-1.39
			C525.36,616.18,526.48,616.64,527.36,617.57z M519.97,630.71h8.21v33.8h-8.21V630.71z"/>
		<path class="st7" d="M569.25,630.71v30.58c0,3.2-0.73,5.99-2.18,8.37c-1.45,2.38-3.52,4.21-6.19,5.5
			c-2.68,1.28-5.78,1.93-9.32,1.93c-5.14,0-9.9-1.5-14.28-4.49l3.28-5.94c3.2,2.36,6.72,3.54,10.55,3.54c3.03,0,5.44-0.78,7.23-2.34
			c1.79-1.56,2.68-3.68,2.68-6.38v-3.98c-1.14,1.73-2.61,3.04-4.42,3.95c-1.81,0.91-3.92,1.36-6.32,1.36
			c-2.95,0-5.56-0.68-7.83-2.05c-2.27-1.37-4.04-3.29-5.31-5.75c-1.26-2.46-1.9-5.3-1.9-8.5c0-3.16,0.63-5.95,1.9-8.37
			c1.26-2.42,3.03-4.31,5.31-5.65c2.27-1.35,4.88-2.02,7.83-2.02c2.36,0,4.45,0.46,6.29,1.39c1.83,0.93,3.32,2.23,4.45,3.92v-5.05
			H569.25z M558.54,653.67c1.66-1.79,2.5-4.12,2.5-6.98c0-2.86-0.83-5.19-2.5-6.98c-1.66-1.79-3.82-2.69-6.47-2.69
			c-2.65,0-4.81,0.91-6.47,2.72c-1.66,1.81-2.52,4.13-2.56,6.95c0.04,2.86,0.9,5.19,2.56,6.98c1.66,1.79,3.82,2.69,6.47,2.69
			C554.72,656.36,556.88,655.46,558.54,653.67z"/>
		<path class="st7" d="M586.31,617.57c0.89,0.93,1.33,2.11,1.33,3.54c0,1.39-0.44,2.55-1.33,3.48c-0.88,0.93-2,1.39-3.35,1.39
			c-1.35,0-2.47-0.46-3.35-1.39c-0.89-0.93-1.33-2.09-1.33-3.48c0-1.43,0.44-2.61,1.33-3.54c0.88-0.93,2-1.39,3.35-1.39
			C584.31,616.18,585.42,616.64,586.31,617.57z M578.92,630.71h8.21v33.8h-8.21V630.71z"/>
		<path class="st7" d="M617.07,662.42c-2.7,1.64-5.52,2.46-8.47,2.46c-2.9,0-5.29-0.85-7.14-2.56c-1.86-1.71-2.78-4.22-2.78-7.55
			V638.1h-4.74l-0.06-6h4.8v-9.29h8.15v9.29h9.67v6h-9.67v15.23c0,1.56,0.3,2.66,0.89,3.32c0.59,0.65,1.47,0.98,2.65,0.98
			c1.27,0,2.87-0.46,4.8-1.39L617.07,662.42z"/>
		<path class="st7" d="M643.48,664.51v-4.11c-1.18,1.47-2.7,2.59-4.55,3.35c-1.86,0.76-3.98,1.14-6.38,1.14
			c-2.36,0-4.43-0.45-6.22-1.36c-1.79-0.91-3.17-2.16-4.14-3.76c-0.97-1.6-1.45-3.39-1.45-5.37c0-3.16,1.12-5.63,3.35-7.42
			c2.23-1.79,5.39-2.71,9.48-2.75h9.86v-0.88c0-1.98-0.65-3.52-1.96-4.61c-1.3-1.1-3.2-1.64-5.69-1.64c-3.2,0-6.55,1.05-10.04,3.16
			l-2.97-5.69c2.65-1.47,5.06-2.54,7.23-3.19c2.17-0.65,4.71-0.98,7.61-0.98c4.38,0,7.78,1.05,10.2,3.16
			c2.42,2.11,3.65,5.05,3.69,8.85l0.06,22.11H643.48z M640.57,656.89c1.68-1.12,2.63-2.5,2.84-4.14v-3.03h-8.53
			c-2.19,0-3.8,0.33-4.83,0.98c-1.03,0.65-1.55,1.72-1.55,3.19c0,1.43,0.54,2.57,1.61,3.41s2.54,1.26,4.39,1.26
			C636.87,658.57,638.89,658.01,640.57,656.89z"/>
		<path class="st7" d="M661.1,617.63h8.21v46.88h-8.21V617.63z"/>
		<path class="st7" d="M706.12,635.07c2.72,3.07,4.08,7.39,4.08,12.95c0,1.1-0.02,1.92-0.06,2.46h-24.95
			c0.55,2.4,1.67,4.29,3.38,5.65c1.71,1.37,3.8,2.05,6.29,2.05c1.73,0,3.38-0.33,4.96-0.98c1.58-0.65,2.96-1.59,4.14-2.81l4.42,4.61
			c-1.68,1.85-3.74,3.28-6.16,4.3c-2.42,1.01-5.11,1.52-8.05,1.52c-3.45,0-6.5-0.72-9.13-2.15c-2.63-1.43-4.66-3.44-6.1-6.03
			c-1.43-2.59-2.15-5.57-2.15-8.94c0-3.37,0.73-6.36,2.18-8.97c1.45-2.61,3.48-4.64,6.1-6.1c2.61-1.45,5.58-2.18,8.91-2.18
			C699.35,630.45,703.4,631.99,706.12,635.07z M702.67,644.98c-0.08-2.48-0.91-4.46-2.46-5.94c-1.56-1.47-3.62-2.21-6.19-2.21
			c-2.4,0-4.41,0.73-6.03,2.18c-1.62,1.45-2.62,3.44-3,5.97H702.67z"/>
	</g>
	<g>
		<linearGradient id="SVGID_1_" gradientUnits="userSpaceOnUse" x1="488.0879" y1="536.569" x2="489.9931" y2="536.569">
			<stop  offset="0" style="stop-color:#FEB62C"/>
			<stop  offset="1" style="stop-color:#F98524"/>
		</linearGradient>
		<path class="st1" d="M488.09,535.86c0.6,0.44,1.25,0.93,1.91,1.42c-0.27-0.16-0.54-0.33-0.82-0.54
			C488.8,536.46,488.41,536.19,488.09,535.86z"/>
		
			<linearGradient id="SVGID_00000067205021410603798200000013729427056891905927_" gradientUnits="userSpaceOnUse" x1="484.4406" y1="496.4478" x2="508.7745" y2="496.4478">
			<stop  offset="0" style="stop-color:#FEB62C"/>
			<stop  offset="1" style="stop-color:#F98524"/>
		</linearGradient>
		<path style="fill:url(#SVGID_00000067205021410603798200000013729427056891905927_);" d="M491.35,502.44
			c-2.89-3.43-5.17-7.29-6.91-11.7c2.12-4.41,4.63-8.49,7.68-12.25c-0.22,4.9,0.6,9.91,2.18,14.86c0.33,0.98,0.65,1.91,1.03,2.83
			c1.74,4.41,4.03,8.27,6.91,11.7c2.01,2.4,4.19,4.52,6.53,6.26c-0.05,0.11-0.05,0.16-0.05,0.27c-1.8-0.54-3.59-1.25-5.28-2.12
			C498.87,509.89,494.84,506.63,491.35,502.44z"/>
		
			<linearGradient id="SVGID_00000152962794399980896670000016731752752216824993_" gradientUnits="userSpaceOnUse" x1="494.076" y1="542.6784" x2="504.5258" y2="542.6784">
			<stop  offset="0" style="stop-color:#FEB62C"/>
			<stop  offset="1" style="stop-color:#F98524"/>
		</linearGradient>
		<path style="fill:url(#SVGID_00000152962794399980896670000016731752752216824993_);" d="M504.53,545.3
			c-1.51-0.61-3.06-1.16-4.52-1.88c-2.07-1.03-4.03-2.12-5.93-3.38C497.67,542.28,501.19,543.95,504.53,545.3z"/>
		
			<linearGradient id="SVGID_00000114058319465341766270000001882695466125348244_" gradientUnits="userSpaceOnUse" x1="509.7454" y1="548.0628" x2="515.9605" y2="548.0628">
			<stop  offset="0" style="stop-color:#FEB62C"/>
			<stop  offset="1" style="stop-color:#F98524"/>
		</linearGradient>
		<path style="fill:url(#SVGID_00000114058319465341766270000001882695466125348244_);" d="M515.96,548.93
			c-1.86-0.42-3.99-1.02-6.22-1.73C511.79,547.84,513.84,548.47,515.96,548.93z"/>
		
			<linearGradient id="SVGID_00000119102747747515865940000007267984493824775842_" gradientUnits="userSpaceOnUse" x1="506.2287" y1="546.6049" x2="509.7454" y2="546.6049">
			<stop  offset="0" style="stop-color:#FEB62C"/>
			<stop  offset="1" style="stop-color:#F98524"/>
		</linearGradient>
		<path style="fill:url(#SVGID_00000119102747747515865940000007267984493824775842_);" d="M509.75,547.2
			c-1.19-0.37-2.36-0.76-3.52-1.19C507.45,546.47,508.6,546.83,509.75,547.2z"/>
		
			<linearGradient id="SVGID_00000001646068657764422130000009066654406396382376_" gradientUnits="userSpaceOnUse" x1="504.5258" y1="545.6572" x2="506.2287" y2="545.6572">
			<stop  offset="0" style="stop-color:#FEB62C"/>
			<stop  offset="1" style="stop-color:#F98524"/>
		</linearGradient>
		<path style="fill:url(#SVGID_00000001646068657764422130000009066654406396382376_);" d="M506.23,546.01
			c-0.55-0.21-1.14-0.48-1.7-0.71C505.1,545.53,505.65,545.8,506.23,546.01z"/>
		<g>
			
				<linearGradient id="SVGID_00000168817242486929906110000008136987773401651130_" gradientUnits="userSpaceOnUse" x1="546.7501" y1="468.5105" x2="549.53" y2="584.5692">
				<stop  offset="0" style="stop-color:#FEB62C"/>
				<stop  offset="1" style="stop-color:#F98524"/>
			</linearGradient>
			<path style="fill:url(#SVGID_00000168817242486929906110000008136987773401651130_);" d="M618.36,520.84
				c0,9.96-1.8,19.16-5.44,27.6c-3.65,8.33-8.55,15.68-14.86,21.88c-6.26,6.21-13.66,11.05-22.32,14.59
				c-8.55,3.43-17.86,5.17-27.76,5.17c-9.69,0-18.84-1.74-27.38-5.17c-8.55-3.54-16-8.38-22.37-14.59
				c-1.69-1.63-3.27-3.32-4.74-5.12c-5.77-6.8-8.87-13.28-10.4-16.77c-3.81-8.93-5.01-17.04-5.34-22.59
				c0.38,0.44,0.71,0.87,1.09,1.25c2.83,3.27,5.93,6.21,9.25,8.76c0.33,0.33,0.71,0.6,1.09,0.87c0.27,0.22,0.54,0.38,0.82,0.54
				c1.31,1.03,2.67,1.96,4.08,2.78c1.91,1.25,3.87,2.34,5.93,3.38c5.01,2.45,10.34,4.3,15.95,5.5c0.44,0.11,0.87,0.16,1.31,0.27
				c0.49,0.11,0.98,0.22,1.42,0.27c1.91,2.07,4.9,4.85,9.09,7.29c1.96,1.2,3.65,1.96,4.41,2.29c4.85,2.07,10.13,3.1,15.79,3.1
				c5.5,0,10.72-1.03,15.57-3.21c4.9-2.12,9.09-5.01,12.74-8.71c3.59-3.65,6.37-8.06,8.38-13.07c1.58-3.97,2.56-8.17,2.89-12.63
				c0.11-1.2,0.16-2.45,0.16-3.7c0-5.5-0.93-10.67-2.78-15.46c-0.05-0.22-0.16-0.44-0.27-0.71c-2.01-4.95-4.79-9.31-8.38-13.01
				c-0.98-0.98-1.96-1.91-3.05-2.83c-2.67-2.18-5.61-4.03-8.87-5.55c-0.27-0.11-0.54-0.22-0.82-0.33
				c-4.84-2.12-10.07-3.21-15.57-3.21c-5.66,0-10.94,1.09-15.79,3.21c-4.74,2.18-8.93,5.06-12.58,8.71
				c-3.59,3.7-6.42,8.06-8.44,13.12c-1.14,2.94-2.01,6.15-2.4,9.36c-2.34-1.74-4.52-3.87-6.53-6.26c-2.89-3.43-5.17-7.29-6.91-11.7
				c-0.38-0.93-0.71-1.85-1.03-2.83c-1.58-4.95-2.4-9.96-2.18-14.86c1.8-2.45,3.87-4.74,6.1-6.86c6.37-6.21,13.83-11.05,22.37-14.59
				c8.55-3.43,17.69-5.23,27.38-5.23c9.91,0,19.22,1.8,27.76,5.23c8.66,3.54,16.06,8.38,22.32,14.59
				c6.31,6.21,11.21,13.5,14.86,21.88C616.56,501.95,618.36,511.04,618.36,520.84z"/>
			
				<linearGradient id="SVGID_00000022561613737201097720000004633063742574310306_" gradientUnits="userSpaceOnUse" x1="528.5696" y1="533.8067" x2="515.3653" y2="424.6977">
				<stop  offset="0" style="stop-color:#2B9FBB"/>
				<stop  offset="1" style="stop-color:#90CBE5"/>
			</linearGradient>
			<path style="fill:url(#SVGID_00000022561613737201097720000004633063742574310306_);" d="M587.71,520.84
				c0,1.25-0.05,2.5-0.16,3.7c-0.65,0.93-1.42,1.85-2.18,2.72c-7.51,8.71-17.64,15.08-30.54,19.33c-9.69,3.16-19.27,4.46-28.69,3.76
				c-0.05,0-0.05,0-0.11,0c-2.99-0.22-5.93-0.6-8.76-1.14c-0.44-0.11-0.87-0.16-1.31-0.27c-1.86-0.42-3.99-1.02-6.22-1.73
				c-1.19-0.37-2.36-0.76-3.52-1.19c-0.55-0.21-1.14-0.48-1.7-0.71c-1.51-0.61-3.06-1.16-4.52-1.88c-2.07-1.03-4.03-2.12-5.93-3.38
				c-1.36-0.87-2.72-1.8-4.08-2.78c-0.27-0.16-0.54-0.33-0.82-0.54c-0.38-0.27-0.76-0.54-1.09-0.87c-3.32-2.56-6.42-5.5-9.25-8.76
				c-0.38-0.38-0.71-0.82-1.09-1.25c-5.55-6.64-9.69-14.32-12.58-22.97c-2.99-9.2-4.08-18.35-3.27-27.38
				c0.82-9.09,3.32-17.47,7.35-25.31c3.97-7.89,9.53-14.86,16.66-20.96c2.18-1.85,11.11-9.2,25.1-13.83
				c14.97-4.9,28.09-4.14,35.71-3.1c0.33-3.1,0.65-6.26,1.03-9.36c6.53,9.42,13.12,18.78,19.65,28.2
				c-7.4,6.64-14.86,13.28-22.32,19.92c-0.11-2.94-0.22-5.93-0.33-8.87c-4.08-1.25-14.21-3.81-25.64-0.05
				c-7.73,2.56-12.74,6.91-13.88,7.95c-3.92,3.54-6.97,7.57-9.2,12.19c-2.23,4.63-3.48,9.58-3.87,14.97c0,0.44-0.05,0.82-0.05,1.25
				c-0.22,4.9,0.6,9.91,2.18,14.86c0.33,0.98,0.65,1.91,1.03,2.83c1.74,4.41,4.03,8.27,6.91,11.7c2.01,2.4,4.19,4.52,6.53,6.26
				c1.74,1.42,3.59,2.56,5.55,3.59c1.69,0.87,3.48,1.58,5.28,2.12c3.05,1.14,6.32,1.85,9.69,2.12c5.39,0.49,10.83-0.16,16.39-2.01
				c7.73-2.5,13.94-6.59,18.56-12.19c0.49-0.6,2.29-2.78,4.14-5.93c2.83-5.01,4.19-9.69,4.85-13.01c1.09,0.93,2.07,1.85,3.05,2.83
				c3.59,3.7,6.37,8.06,8.38,13.01c0.11,0.27,0.22,0.49,0.27,0.71C586.79,510.17,587.71,515.34,587.71,520.84z"/>
		</g>
		<path class="st10" d="M518.69,549.46c-4.22,0.64-10.35,1.06-17.53-0.21c-9.67-1.71-16.76-5.69-20.79-8.38
			c-0.77-2.63-1.48-5.63-1.98-8.96c-0.32-2.15-0.52-4.18-0.64-6.07c3.44,4.13,9.06,9.89,17.33,14.86
			C504.39,546.29,513.12,548.5,518.69,549.46z"/>
		<path class="st11" d="M587.71,520.84c0,1.25-0.05,2.5-0.16,3.7c-0.65,0.93-1.42,1.85-2.18,2.72c-1.96,2.29-4.08,4.41-6.42,6.32
			c0.22-0.49,0.44-0.98,0.65-1.47c1.58-3.97,2.56-8.17,2.89-12.63c0.11-1.2,0.16-2.45,0.16-3.7c0-5.5-0.93-10.67-2.78-15.46
			c-0.05-0.22-0.16-0.44-0.27-0.71c-1.63-3.97-3.7-7.57-6.37-10.72v-0.05c1.09,0.93,2.07,1.85,3.05,2.83
			c3.59,3.7,6.37,8.06,8.38,13.01c0.11,0.27,0.22,0.49,0.27,0.71C586.79,510.17,587.71,515.34,587.71,520.84z"/>
	</g>
</g>
</svg>
